<?xml version="1.0" standalone="no"?><!DOCTYPE svg PUBLIC "-//W3C//DTD SVG 1.1//EN" "http://www.w3.org/Graphics/SVG/1.1/DTD/svg11.dtd"><svg t="1569572427963" class="icon" viewBox="0 0 1028 1024" version="1.1" xmlns="http://www.w3.org/2000/svg" p-id="4254" xmlns:xlink="http://www.w3.org/1999/xlink" width="200.78125" height="200"><defs><style type="text/css"></style></defs><path d="M0 502.784a512 500.736 0 1 0 1024 0 512 500.736 0 1 0-1024 0Z" fill="#1296db" p-id="4255"></path><path d="M4.096 523.264a512 500.736 0 1 0 1024 0 512 500.736 0 1 0-1024 0Z" fill="#1296db" p-id="4256"></path><path d="M153.6 502.784a358.4 351.232 0 1 0 716.8 0 358.4 351.232 0 1 0-716.8 0Z" fill="#FFFFFF" p-id="4257"></path><path d="M404.48 111.616h223.232c20.48 0 37.888-16.384 37.888-36.864V21.504C617.472 7.168 567.296 0 516.096 0s-102.4 7.168-149.504 21.504v53.248c0 20.48 16.384 36.864 37.888 36.864zM627.712 904.192H404.48c-20.48 0-37.888 16.384-37.888 36.864v39.936c47.104 14.336 97.28 21.504 149.504 21.504s102.4-7.168 149.504-21.504v-39.936c0-20.48-17.408-36.864-37.888-36.864zM917.504 393.216v219.136c0 20.48 17.408 36.864 37.888 36.864H1005.568c14.336-47.104 22.528-96.256 22.528-147.456 0-50.176-7.168-99.328-21.504-144.384h-51.2c-21.504-1.024-37.888 15.36-37.888 35.84zM107.52 612.352V393.216c0-20.48-17.408-36.864-37.888-36.864H25.6C11.264 402.432 4.096 450.56 4.096 500.736c0 51.2 8.192 100.352 22.528 147.456h44.032c19.456 0 36.864-16.384 36.864-35.84zM719.872 147.456l157.696 154.624c14.336 14.336 38.912 14.336 53.248 0l36.864-36.864c-48.128-88.064-120.832-159.744-210.944-206.848L718.848 95.232c-13.312 15.36-13.312 38.912 1.024 52.224zM305.152 863.232L147.456 708.608c-14.336-14.336-38.912-14.336-53.248 0L64.512 737.28c48.128 88.064 121.856 159.744 211.968 205.824l29.696-28.672c13.312-13.312 13.312-36.864-1.024-51.2zM879.616 702.464L720.896 857.088c-14.336 14.336-14.336 37.888 0 52.224l34.816 34.816c90.112-47.104 163.84-118.784 210.944-206.848l-34.816-34.816c-14.336-14.336-37.888-14.336-52.224 0zM148.48 296.96l157.696-154.624c14.336-14.336 14.336-37.888 0-52.224l-31.744-30.72C184.32 106.496 110.592 178.176 63.488 266.24l31.744 30.72c15.36 14.336 38.912 14.336 53.248 0z" fill="#FFFFFF" p-id="4258"></path></svg>