<?xml version="1.0" standalone="no"?><!DOCTYPE svg PUBLIC "-//W3C//DTD SVG 1.1//EN" "http://www.w3.org/Graphics/SVG/1.1/DTD/svg11.dtd"><svg t="1569572468298" class="icon" viewBox="0 0 1024 1024" version="1.1" xmlns="http://www.w3.org/2000/svg" p-id="5105" xmlns:xlink="http://www.w3.org/1999/xlink" width="200" height="200"><defs><style type="text/css"></style></defs><path d="M911.86816 511.9936c0-220.8448-179.01056-399.86688-399.85664-399.86688-220.84736 0-399.88096 179.02208-399.88096 399.86688 0 220.84736 179.0336 399.85792 399.88096 399.85792 220.84608 0 399.85664-179.01056 399.85664-399.85792z" fill="#FD9F13" p-id="5106"></path><path d="M512.0128 960.00512C264.98944 960.00512 64 759.01568 64 511.9936 64 264.96 264.98944 63.99488 512.0128 63.99488S960 264.96 960 511.9936c0 247.02208-200.96512 448.01152-447.9872 448.01152z m0-799.74784c-193.94432 0-351.74784 157.79456-351.74784 351.73632 0 193.9648 157.80352 351.74784 351.74784 351.74784 193.94176 0 351.7248-157.78304 351.7248-351.74784 0-193.94176-157.78304-351.73632-351.7248-351.73632z" fill="#FCEA10" p-id="5107"></path><path d="M614.50496 415.66208c-20.80768 6.97984-43.40352-4.26112-50.38464-25.13664-5.12512-15.28576-24.38784-33.15584-61.80736-33.15584-29.06752 0-46.23104 18.86464-48.1536 37.4848-2.4064 23.1936 18.66624 41.77152 56.32896 49.63584 90.10176 18.86208 124.80128 81.81632 119.21408 135.80416-5.08032 49.0368-40.35712 88.44288-87.56096 102.89024v24.29696c0 21.97888-17.82656 39.80544-39.80544 39.80544-21.99936 0-39.82592-17.82656-39.82592-39.80544v-23.10528c-54.64832-12.61312-86.48064-49.69856-97.50272-82.68032-6.97984-20.84992 4.26368-43.4496 25.1392-50.38464 20.84992-6.97984 43.42656 4.26368 50.38464 25.11616 5.52192 16.52096 26.77248 33.15584 61.8048 33.15584 29.04704 0 46.21056-18.8416 48.13184-37.46432 2.40896-23.1936-18.6432-41.77152-56.3264-49.63328-90.12352-18.88768-124.80384-81.81888-119.21408-135.82592 5.08032-49.03808 40.38016-88.44288 87.56224-102.87872v-24.30848c0-21.97888 17.84832-39.82848 39.82592-39.82848 21.97888 0 39.82848 17.84832 39.82848 39.82848v23.09376c54.60224 12.62336 86.43456 49.69856 97.47968 82.66624 6.976 20.87552-4.26624 43.42912-25.11872 50.42944z" fill="#FFDE00" p-id="5108"></path></svg>