<?xml version="1.0" standalone="no"?><!DOCTYPE svg PUBLIC "-//W3C//DTD SVG 1.1//EN" "http://www.w3.org/Graphics/SVG/1.1/DTD/svg11.dtd"><svg t="1575954808027" class="icon" viewBox="0 0 1024 1024" version="1.1" xmlns="http://www.w3.org/2000/svg" p-id="4034" xmlns:xlink="http://www.w3.org/1999/xlink" width="200" height="200"><defs><style type="text/css"></style></defs><path d="M498.333 270.917c46.947 0 90.523 11.737 130.737 35.21 40.212 23.471 72.055 55.317 95.53 95.53 23.471 40.212 35.21 83.792 35.21 130.737s-11.737 90.523-35.21 130.74c-23.471 40.212-55.317 72.055-95.53 95.53-40.212 23.471-83.792 35.21-130.737 35.21s-90.523-11.737-130.737-35.21c-40.212-23.471-72.055-55.317-95.53-95.53-23.471-40.212-35.21-83.792-35.21-130.74 0-46.947 11.737-90.523 35.21-130.737 23.471-40.212 55.317-72.055 95.53-95.53 40.212-23.471 83.792-35.21 130.737-35.21z" fill="#5E7D8C" p-id="4035"></path><path d="M604.082 127.954l-101.086-69.386c-3.283-2.323-7.739 0-7.739 4.059v37.298c-237.148 0-430.245 193.095-430.245 430.251 0 137.422 66.489 267.502 177.628 348.299l37.691-51.989c-94.518-68.621-151.152-179.372-151.152-296.306 0-201.785 164.29-366.076 366.076-366.076v37.494c0 4.059 4.454 6.383 7.739 4.059l101.086-69.386c2.897-1.938 2.897-6.192 0-8.315zM747.69 181.881l-37.684 51.99c94.706 68.807 151.344 179.558 151.344 296.494 0 201.789-164.29 366.078-366.087 366.078v-37.684c0-4.057-4.447-6.38-7.729-4.057l-101.086 69.382c-2.897 1.935-2.897 6.183 0 8.315l101.086 69.382c3.283 2.323 7.729 0 7.729-4.057v-37.307c237.156 0 430.251-192.895 430.251-430.245 0.001-137.423-66.486-267.5-177.823-348.299zM747.69 181.881z" fill="#5E7D8C" p-id="4036"></path><path d="M459.535 591.883l-114.032-65.35 0.358-16.716 116.748-60.377-0.478 22.289-94.158 46.525 92.059 50.558-0.501 23.070zM471.062 611.243l48.435-178.091 18.303 0.397-48.448 178.091-18.292-0.397zM549.671 473.615l0.478-22.289 113.252 65.35-0.358 16.716-115.967 60.377 0.501-23.070 93.365-46.547-91.266-50.534z" fill="#FFFFFF" p-id="4037"></path></svg>