<?xml version="1.0" standalone="no"?><!DOCTYPE svg PUBLIC "-//W3C//DTD SVG 1.1//EN" "http://www.w3.org/Graphics/SVG/1.1/DTD/svg11.dtd"><svg t="1569668290087" class="icon" viewBox="0 0 1024 1024" version="1.1" xmlns="http://www.w3.org/2000/svg" p-id="2569" xmlns:xlink="http://www.w3.org/1999/xlink" width="200" height="200"><defs><style type="text/css"></style></defs><path d="M994.98997 601.462608c-16.396973-83.065986-168.474397-126.130565-319.290515-126.130565h-6.666902V157.48302c0-92.796058-162.167869-141.086046-320.732008-141.086047S27.568538 64.686961 27.568538 157.48302v500.918528c0 92.615872 162.167869 141.086046 320.732007 141.086047h6.666902v67.209572c0 92.615872 162.167869 140.90586 320.732008 140.90586s320.732008-48.289988 320.732007-140.90586V601.462608zM348.841105 56.578568c146.671828 0 265.775119 39.280662 265.775119 87.570649s-119.103291 87.570649-265.775119 87.570649S83.065986 192.619391 83.065986 144.149217s119.103291-87.570649 265.775119-87.570649zM105.048742 252.26113a417.49217 417.49217 0 0 0 90.994193 30.631708 735.881753 735.881753 0 0 0 96.760162 13.694176c18.018652 1.441492 37.118423 1.982052 56.038008 1.982052s37.658983 0 56.038008-1.982052a735.881753 735.881753 0 0 0 96.760162-13.694176A422.537392 422.537392 0 0 0 592.813655 252.26113c14.234735 10.631005 21.802569 20.901636 21.802569 30.631708s-7.567834 19.820517-21.802569 30.451522a163.969734 163.969734 0 0 1-30.091149 18.018652 301.45205 301.45205 0 0 1-39.280662 14.775295 601.462608 601.462608 0 0 1-175.141299 23.424248 602.543727 602.543727 0 0 1-175.141298-23.424248 331.002639 331.002639 0 0 1-39.100475-14.775295 177.12335 177.12335 0 0 1-30.091149-18.018652 43.605138 43.605138 0 0 1-20.901637-30.451522c0-9.730072 7.567834-20.000704 21.982756-30.631708z m0 126.130565a417.49217 417.49217 0 0 0 90.994193 30.631708 706.871723 706.871723 0 0 0 96.760162 13.694176c18.018652 1.621679 37.658983 1.982052 56.038008 1.982051s37.658983 0 56.038008-1.982051a706.871723 706.871723 0 0 0 96.760162-13.694176A422.537392 422.537392 0 0 0 592.813655 378.391695c14.234735 10.811191 21.802569 20.901636 21.802569 30.631708s-7.567834 19.820517-21.802569 30.451522a163.969734 163.969734 0 0 1-30.091149 18.018652 301.45205 301.45205 0 0 1-39.280662 14.775295 601.462608 601.462608 0 0 1-175.141299 23.424248 602.543727 602.543727 0 0 1-175.141298-23.424248 331.002639 331.002639 0 0 1-39.100475-14.775295 177.12335 177.12335 0 0 1-30.091149-18.018652 43.244765 43.244765 0 0 1-20.901637-30.451522c0-9.730072 7.567834-19.820517 21.982756-30.631708z m250.459264 367.22013h-6.666901c-162.167869 0-265.775119-50.992786-265.775119-86.129157 0-9.730072 7.567834-19.820517 21.982756-30.631709 61.443604 30.631709 153.158543 46.488122 243.792363 46.488122h6.666901z m12.613057-171.717755a77.840577 77.840577 0 0 0-13.153616 43.424952v2.882984h-6.666902a602.543727 602.543727 0 0 1-175.141298-23.424248 409.023403 409.023403 0 0 1-38.740102-14.595108 187.574169 187.574169 0 0 1-29.910963-18.018652c-14.234735-10.631005-21.982756-20.72145-21.982755-30.451522s7.74802-19.820517 21.982755-30.631709a406.680978 406.680978 0 0 0 91.17438 30.631709 700.204821 700.204821 0 0 0 96.579975 13.694175c18.919585 1.621679 37.29861 2.162238 56.038008 2.162239 13.694176 0 28.109097 0 41.803273-1.081119a98.021468 98.021468 0 0 0-21.982755 24.865739z m41.262713 168.654584c0-9.730072 7.74802-20.000704 21.982756-30.631709a327.939469 327.939469 0 0 0 52.434277 20.361077c12.252683 3.60373 25.406299 7.207461 38.740102 10.270632 5.585782 0.900933 10.631005 2.522611 16.216787 3.423544 18.018652 3.60373 36.037304 6.126342 54.055957 8.28858 8.648953 0.900933 18.018652 1.441492 25.946859 2.522611 18.018652 1.441492 37.658983 1.982052 55.857821 1.982052s37.839169 0 56.578568-1.982052a702.727433 702.727433 0 0 0 97.661095-14.955481 409.744149 409.744149 0 0 0 90.09326-30.451522c14.234735 10.631005 21.802569 20.901636 21.802569 30.451522s-7.567834 20.000704-21.802569 30.631708a189.015661 189.015661 0 0 1-29.550589 16.757347 330.101707 330.101707 0 0 1-39.280662 14.775295 607.769136 607.769136 0 0 1-175.141299 23.424247 609.571001 609.571001 0 0 1-175.141298-23.424247 319.831075 319.831075 0 0 1-36.037304-13.153616l-2.882985-1.621679a177.12335 177.12335 0 0 1-30.091149-18.018652 41.082527 41.082527 0 0 1-5.045222-3.964104 39.280662 39.280662 0 0 1-16.937533-26.127045zM675.699455 952.646138c-162.167869 0-265.775119-50.812599-265.775119-85.948971 0-9.730072 7.74802-19.820517 21.982755-30.631709 61.62379 30.631709 153.158543 46.848496 243.792364 46.848496s182.348759-16.216787 243.251803-46.848496c14.234735 10.811191 21.802569 20.901636 21.802569 30.631709 0 35.136372-103.427063 85.948971-265.775119 85.948971z m4.14429-262.711948c-146.671828 0-265.414746-39.100475-265.414746-87.57065s119.103291-87.570649 265.775119-87.570649 265.775119 39.280662 265.775118 87.570649-119.103291 87.570649-265.775118 87.57065z m0 0" fill="#F5A540" p-id="2570"></path></svg>